<?xml version="1.0" standalone="no"?>
<!DOCTYPE svg PUBLIC "-//W3C//DTD SVG 20010904//EN"
 "http://www.w3.org/TR/2001/REC-SVG-20010904/DTD/svg10.dtd">
<svg version="1.0" xmlns="http://www.w3.org/2000/svg"
 width="414.000000pt" height="359.000000pt" viewBox="0 0 414.000000 359.000000"
 preserveAspectRatio="xMidYMid meet">

<g transform="translate(0.000000,359.000000) scale(0.100000,-0.100000)"
fill="#000000" stroke="none">
<path d="M2185 3508 c-115 -125 -193 -285 -216 -446 -7 -49 -24 -102 -45 -147
-19 -38 -40 -99 -48 -135 -21 -104 -29 -42 -15 125 14 180 10 256 -18 293 -11
15 -28 28 -37 30 -13 3 -16 -5 -16 -38 0 -23 -11 -89 -24 -148 -60 -261 -55
-408 23 -599 11 -29 16 -53 11 -53 -27 0 -80 31 -101 59 -21 29 -24 30 -41 14
-14 -12 -18 -31 -18 -82 0 -38 -9 -93 -21 -131 -24 -75 -20 -147 12 -219 26
-59 24 -71 -15 -117 -63 -74 -86 -115 -86 -155 0 -77 81 -129 238 -153 71 -10
96 -19 132 -45 84 -61 161 -81 231 -60 31 10 69 38 140 105 54 51 106 95 116
98 10 3 32 2 48 -3 21 -7 24 -10 10 -10 -51 -3 -51 -18 -1 -63 56 -49 89 -67
129 -68 l29 0 -32 26 c-28 24 -70 91 -70 111 0 4 13 15 29 24 18 11 35 33 46
62 15 41 21 46 61 56 24 6 53 20 64 31 23 23 26 75 8 115 -10 21 -8 29 9 48
32 35 45 66 53 126 4 31 11 64 15 74 6 15 0 17 -61 17 -38 -1 -86 -7 -106 -14
l-37 -13 13 26 c39 75 25 133 -42 175 -37 23 -37 24 -66 162 -46 221 -70 288
-91 254 -3 -5 -18 -9 -33 -9 l-27 1 30 7 c57 12 99 119 60 151 -13 11 -22 10
-51 -3 -48 -23 -52 -21 -23 11 14 15 33 39 42 54 16 26 16 28 -4 39 -15 7 -46
9 -92 4 l-70 -7 6 67 c4 42 21 102 47 167 22 55 40 109 40 119 0 11 -8 47 -17
79 -13 42 -23 60 -35 60 -9 0 -46 -32 -83 -72z m76 33 c-11 -20 -49 -46 -57
-39 -2 3 10 19 28 36 33 35 46 36 29 3z m-41 -126 c-78 -132 -108 -206 -117
-285 l-6 -61 -50 -25 -50 -26 7 47 c18 119 68 249 138 358 22 35 36 47 55 47
13 0 36 12 51 28 15 15 29 27 31 25 2 -1 -25 -50 -59 -108z m49 -60 c-22 -54
-49 -136 -58 -184 -17 -85 -17 -86 -49 -89 l-32 -3 6 48 c9 70 42 155 104 270
49 90 56 99 63 78 6 -17 -3 -48 -34 -120z m-429 -252 c0 -23 -5 -87 -11 -141
-10 -83 -9 -120 5 -222 21 -153 31 -174 40 -84 22 212 136 374 287 406 49 10
61 9 94 -6 28 -13 50 -17 83 -12 40 5 43 4 31 -11 -19 -23 -64 -40 -155 -59
-88 -18 -119 -31 -150 -66 -39 -42 -56 -88 -60 -167 l-4 -76 18 75 c10 41 25
89 34 106 17 31 45 60 52 53 2 -2 8 -38 14 -79 l9 -75 2 87 1 86 31 7 c17 4
35 3 39 -1 8 -9 70 -272 91 -385 11 -62 11 -69 -9 -100 -26 -42 -59 -127 -71
-181 -12 -53 0 -38 29 36 13 33 39 80 58 105 75 97 86 161 47 272 -8 23 -15
66 -15 96 0 52 1 55 22 50 12 -3 29 -2 39 4 16 8 19 3 25 -38 3 -27 17 -93 31
-148 62 -252 33 -480 -73 -574 -59 -51 -112 -65 -230 -59 -114 6 -176 -4 -225
-36 l-37 -25 9 37 c24 102 -4 299 -66 467 -49 132 -55 160 -62 270 -5 83 -1
124 21 242 14 79 26 167 27 195 l1 53 13 -30 c8 -16 14 -49 15 -72z m535 -22
c16 -7 12 -10 -22 -15 -23 -4 -52 -4 -65 0 -21 8 -20 9 12 15 48 9 52 9 75 0z
m-105 -151 c0 -10 13 -34 29 -52 28 -32 28 -34 18 -96 -8 -48 -8 -76 2 -120
19 -80 25 -152 13 -164 -6 -6 -12 11 -17 48 -4 32 -22 132 -41 223 -39 191
-38 181 -19 181 8 0 15 -9 15 -20z m-554 -542 c11 -9 38 -24 62 -33 23 -10 42
-22 42 -27 0 -6 -14 -26 -31 -46 -42 -48 -59 -91 -59 -151 0 -173 160 -319
421 -385 105 -27 102 -29 -55 -42 -56 -4 -76 -3 -72 5 5 7 -4 11 -23 11 -17 0
-31 4 -31 8 0 4 -23 9 -52 10 -66 3 -91 20 -106 70 -7 23 -35 68 -62 100 -28
33 -50 63 -50 66 0 4 -9 19 -20 34 -11 15 -22 42 -24 59 -3 18 -7 41 -11 52
-3 11 2 57 11 102 11 54 15 104 11 146 -8 78 0 108 18 67 7 -16 21 -36 31 -46z
m854 -81 c0 -53 -33 -143 -48 -133 -4 3 -6 -21 -4 -52 4 -54 2 -60 -36 -107
-53 -67 -74 -111 -78 -161 -2 -43 -28 -103 -48 -116 -7 -5 -7 -8 2 -8 24 0 8
-18 -77 -85 -83 -66 -132 -95 -181 -110 -24 -7 -24 -7 -9 11 32 38 31 48 -2
17 -37 -35 -84 -48 -58 -16 12 14 12 16 -1 11 -24 -8 -50 10 -43 30 5 14 4 15
-8 6 -19 -16 -81 6 -94 33 -10 19 -13 20 -35 8 -32 -17 -98 -10 -165 19 l-50
21 35 6 c34 6 33 6 -10 8 -43 1 -70 14 -70 33 0 4 12 3 26 -2 14 -6 33 -10 42
-9 9 0 4 5 -13 11 -44 16 -65 38 -65 70 0 31 6 34 34 13 32 -24 40 -17 10 8
l-26 23 34 61 34 62 54 -48 c53 -47 54 -49 61 -116 8 -82 23 -98 107 -116 65
-13 212 -1 362 30 l85 18 -53 7 c-50 8 -53 10 -50 35 3 25 5 26 55 23 47 -3
56 -1 83 26 39 40 39 61 -1 28 -17 -14 -35 -26 -41 -26 -6 0 0 9 13 20 l24 20
-35 -14 c-19 -8 -47 -12 -61 -9 -32 6 -47 -11 -51 -59 l-3 -36 -35 12 c-26 9
-34 16 -32 31 6 38 39 70 110 105 71 35 132 84 132 105 0 6 12 27 26 46 62 83
104 213 104 326 l1 48 24 -28 c20 -22 25 -39 25 -80z m-727 -53 c4 -24 1 -47
-10 -68 -21 -39 -20 -136 1 -195 21 -59 20 -62 -8 -21 -53 79 -71 195 -41 267
30 72 48 77 58 17z m891 -86 c-12 -91 -33 -120 -99 -134 l-40 -8 32 -4 c69 -7
84 -83 29 -138 -37 -37 -54 -42 -62 -19 -9 22 -24 18 -24 -5 0 -31 -25 -74
-60 -104 -24 -19 -43 -26 -76 -26 -24 0 -44 2 -44 4 0 3 10 21 21 41 20 33 22
34 35 18 12 -16 12 -14 5 12 -21 77 23 178 101 235 41 30 44 40 7 20 -17 -10
-19 -7 -19 29 0 22 -2 46 -5 53 -4 9 10 23 37 38 56 32 74 38 126 39 l43 1 -7
-52z m-865 -158 c0 -35 -3 -50 -8 -40 -14 24 -24 136 -15 172 8 32 8 31 15
-22 4 -30 7 -80 8 -110z m501 -20 c-12 -22 -44 -40 -124 -70 -62 -24 -91 -54
-106 -111 -12 -42 -17 -46 -44 -26 -16 12 -16 18 -6 58 7 24 17 50 22 57 6 6
8 12 4 12 -12 0 -46 -65 -46 -87 0 -13 -2 -23 -5 -23 -16 0 -93 45 -89 52 3 4
-4 8 -15 8 -11 0 -33 11 -48 25 l-28 24 35 2 c35 1 35 1 5 8 l-29 6 29 20 c27
18 49 20 193 23 137 2 171 5 205 21 54 25 60 25 47 1z"/>
<path d="M1650 2161 c0 -5 7 -12 16 -15 14 -5 15 -4 4 9 -14 17 -20 19 -20 6z"/>
<path d="M2495 3294 c-18 -19 -19 -40 -3 -116 9 -44 16 -58 29 -58 31 0 49 29
49 76 0 77 -42 131 -75 98z"/>
<path d="M2555 2853 c10 -71 35 -115 77 -138 35 -18 38 -18 56 -2 10 9 26 17
35 17 12 0 17 9 17 30 0 56 -100 139 -168 140 -22 0 -23 -3 -17 -47z"/>
<path d="M2327 1601 l-38 -50 24 -48 c41 -79 84 -103 188 -103 60 0 86 14 46
24 -34 8 -76 57 -121 142 -23 43 -46 79 -51 81 -6 2 -28 -19 -48 -46z"/>
<path d="M1765 1531 c-13 -27 -34 -56 -46 -65 l-22 -15 27 -7 c39 -9 104 13
139 47 l29 30 -41 29 c-22 17 -45 30 -51 30 -5 0 -21 -22 -35 -49z"/>
<path d="M2225 1503 c-22 -15 -62 -35 -88 -44 l-49 -17 47 -18 c42 -16 50 -16
73 -3 35 20 64 62 60 88 -3 21 -3 21 -43 -6z"/>
<path d="M1910 1503 c-1 -69 -22 -199 -35 -220 -21 -32 -16 -36 26 -22 71 24
136 96 153 170 5 24 3 27 -32 33 -20 3 -54 17 -74 31 -34 23 -38 24 -38 8z"/>
<path d="M1105 1140 c-21 -17 -56 -33 -77 -36 -60 -10 -46 -28 16 -20 92 10
131 27 131 56 0 35 -23 35 -70 0z"/>
<path d="M3015 972 c-137 -45 -209 -209 -158 -358 24 -71 112 -157 183 -178
99 -29 184 -15 251 42 55 47 103 149 65 140 -7 -2 -29 -23 -47 -48 -47 -61
-91 -85 -159 -84 -94 0 -169 54 -213 153 -15 34 -18 60 -15 121 3 70 6 82 34
116 47 59 78 77 136 81 68 5 110 -17 160 -83 46 -60 72 -74 95 -51 16 15 16
19 1 51 -46 96 -202 142 -333 98z"/>
<path d="M13 963 c15 -17 17 -46 17 -258 0 -208 -2 -241 -17 -257 -16 -17 -11
-18 141 -18 129 0 166 3 211 19 121 43 185 131 185 253 0 38 -6 84 -14 102
-23 55 -81 111 -148 142 -60 28 -71 29 -228 32 -162 4 -164 3 -147 -15z m312
-40 c52 -27 110 -88 130 -135 20 -50 20 -160 -1 -201 -43 -85 -105 -119 -227
-125 -60 -3 -92 -1 -102 8 -13 10 -15 50 -15 240 0 124 3 230 8 234 15 16 166
0 207 -21z"/>
<path d="M880 971 c0 -5 7 -11 15 -15 22 -8 22 -477 0 -496 -8 -7 -15 -16 -15
-21 0 -6 91 -8 212 -7 l212 3 12 48 c16 64 0 71 -45 18 l-36 -42 -120 3 -120
3 -3 118 -3 117 81 0 c73 0 82 -2 102 -25 11 -13 25 -22 30 -19 4 3 8 30 8 60
0 58 -15 71 -38 34 -11 -17 -23 -20 -97 -20 l-85 0 0 110 0 110 112 0 112 0
37 -42 c20 -24 40 -40 44 -36 4 4 2 30 -5 57 l-12 51 -199 0 c-110 0 -199 -4
-199 -9z"/>
<path d="M1640 974 c0 -3 7 -12 15 -20 12 -13 15 -55 15 -248 0 -195 -2 -236
-15 -246 -8 -7 -15 -16 -15 -21 0 -5 92 -9 204 -9 l204 0 12 51 c15 62 2 85
-26 44 -46 -66 -45 -66 -167 -63 l-112 3 -3 243 c-2 209 0 243 13 248 35 14
11 24 -55 24 -38 0 -70 -3 -70 -6z"/>
<path d="M2380 971 c0 -5 7 -14 15 -21 13 -10 15 -50 15 -245 0 -195 -2 -235
-15 -245 -28 -23 -15 -30 56 -30 l70 0 -20 26 c-20 25 -21 39 -21 249 0 210 1
224 21 249 l20 26 -70 0 c-39 0 -71 -4 -71 -9z"/>
<path d="M3690 971 c0 -5 7 -14 15 -21 13 -10 15 -50 15 -245 0 -195 -2 -235
-15 -245 -8 -7 -15 -16 -15 -21 0 -5 94 -9 209 -9 l209 0 11 44 c14 58 14 66
-3 66 -8 0 -24 -15 -35 -34 -12 -19 -28 -37 -37 -40 -9 -3 -64 -6 -124 -6 -80
0 -111 4 -119 14 -8 9 -11 50 -9 117 l3 104 81 3 c77 3 83 1 102 -23 11 -14
23 -25 26 -25 3 0 6 27 6 60 0 61 -11 76 -30 40 -9 -18 -21 -20 -100 -20 l-90
0 0 94 c0 52 3 101 6 110 5 13 25 16 113 16 l108 0 38 -41 c20 -22 41 -37 46
-32 4 4 2 28 -5 53 l-13 45 -197 3 c-111 1 -196 -1 -196 -7z"/>
<path d="M793 229 c14 -8 17 -25 17 -109 0 -69 -4 -100 -12 -103 -7 -3 5 -5
27 -5 22 0 34 2 28 5 -20 8 -16 102 5 127 16 20 16 20 0 7 -17 -12 -18 -10
-18 38 0 51 0 51 -32 51 -27 -1 -30 -2 -15 -11z"/>
<path d="M1518 233 c8 -3 12 -35 12 -108 0 -73 -4 -105 -12 -108 -7 -3 7 -6
32 -6 35 0 41 2 28 10 -15 8 -18 26 -18 114 l0 105 -27 -1 c-16 0 -22 -3 -15
-6z"/>
<path d="M3207 234 c-14 -14 -7 -35 11 -32 9 2 17 10 17 17 0 16 -18 25 -28
15z"/>
<path d="M599 191 c-24 -25 -29 -37 -29 -81 0 -41 5 -56 25 -75 13 -14 32 -25
42 -24 11 0 13 3 5 6 -20 8 -42 59 -42 98 0 39 22 90 42 98 10 4 10 6 0 6 -8
1 -27 -12 -43 -28z"/>
<path d="M718 204 c12 -8 22 -23 22 -32 0 -15 2 -15 10 -2 5 8 10 23 10 34 0
15 -3 16 -14 7 -10 -8 -16 -9 -21 -1 -3 5 -11 10 -18 10 -6 0 -1 -7 11 -16z"/>
<path d="M2198 209 c-20 -11 -24 -44 -8 -54 7 -4 1 -16 -15 -30 -32 -30 -32
-59 0 -90 20 -20 34 -25 78 -25 86 0 134 53 91 101 -14 15 -13 18 15 27 38 13
55 43 38 66 -12 16 -13 15 -12 -10 0 -25 -5 -29 -58 -45 -68 -20 -87 -34 -86
-63 0 -21 0 -21 9 1 18 44 91 41 98 -5 8 -52 -108 -73 -153 -27 -31 30 -31 48
-2 72 18 14 22 22 14 34 -15 24 -1 49 27 49 18 0 24 -4 20 -14 -7 -17 12 -31
21 -16 18 29 -40 51 -77 29z"/>
<path d="M2327 213 c-12 -11 -8 -23 8 -23 8 0 15 7 15 15 0 16 -12 20 -23 8z"/>
<path d="M2523 209 c14 -8 17 -25 17 -94 0 -69 -3 -86 -17 -94 -14 -8 0 -10
55 -11 59 0 76 4 92 20 31 31 24 62 -21 85 -33 17 -39 18 -39 6 0 -5 9 -11 20
-14 14 -4 20 -14 20 -34 0 -36 -16 -53 -52 -53 l-28 0 0 95 c0 93 0 95 24 95
32 0 50 -24 42 -55 -7 -28 5 -33 24 -10 17 21 4 61 -22 69 -13 3 -48 6 -78 6
-42 -1 -51 -3 -37 -11z"/>
<path d="M1799 183 c-2 -16 -2 -59 1 -98 l5 -70 34 0 c20 0 35 5 37 13 1 7 0
8 -3 2 -2 -5 -13 -10 -24 -10 -17 0 -19 8 -19 95 0 74 -3 95 -14 95 -7 0 -15
-12 -17 -27z"/>
<path d="M893 159 c13 -8 17 -24 17 -74 0 -41 -4 -65 -12 -68 -7 -3 7 -6 32
-6 35 0 41 2 28 10 -14 8 -18 23 -18 69 0 48 -4 61 -19 70 -26 13 -52 13 -28
-1z"/>
<path d="M1033 160 c-27 -11 -43 -40 -43 -77 0 -33 25 -73 45 -73 12 0 12 4
-1 28 -7 15 -14 38 -14 52 0 30 26 70 45 70 21 0 45 -40 45 -75 0 -17 -7 -41
-16 -53 -13 -19 -13 -22 0 -22 22 0 46 40 46 76 0 57 -55 95 -107 74z"/>
<path d="M1257 160 c15 -6 21 -15 17 -25 -4 -10 0 -15 10 -15 9 0 16 7 16 15
0 15 -30 35 -52 34 -7 0 -3 -4 9 -9z"/>
<path d="M1367 150 c-22 -17 -27 -30 -27 -64 0 -29 6 -48 18 -59 24 -22 49
-23 28 -1 -18 18 -21 85 -6 115 12 21 40 25 58 7 7 -7 12 -35 12 -63 0 -28 -5
-56 -12 -63 -13 -13 0 -16 18 -4 35 23 42 105 10 131 -27 23 -70 23 -99 1z"/>
<path d="M1678 160 c24 -10 32 -60 10 -60 -10 0 -10 -2 -1 -8 6 -4 13 -23 15
-42 3 -31 7 -35 33 -38 25 -2 27 -1 13 8 -14 9 -18 25 -18 70 0 62 -13 81 -57
79 -15 0 -14 -2 5 -9z"/>
<path d="M1926 149 c-21 -16 -26 -29 -26 -63 0 -29 6 -48 18 -59 25 -23 86
-22 103 0 11 15 11 16 -1 5 -34 -30 -90 -3 -90 44 0 22 4 24 50 24 43 0 50 3
50 19 0 22 -35 51 -61 51 -9 0 -28 -9 -43 -21z m62 -1 c23 -23 13 -38 -23 -38
-38 0 -40 2 -25 31 12 22 30 25 48 7z"/>
<path d="M2763 160 c-43 -17 -57 -85 -27 -128 21 -31 84 -31 110 1 19 22 19
22 -2 5 -28 -24 -60 -22 -78 4 -31 44 -22 58 40 58 53 0 55 1 49 23 -4 12 -10
25 -14 29 -12 12 -56 17 -78 8z m55 -28 c3 -19 -1 -22 -32 -22 -39 0 -45 10
-20 35 22 21 48 15 52 -13z"/>
<path d="M2983 150 c-2 -19 16 -27 30 -13 7 6 -11 33 -22 33 -4 0 -7 -9 -8
-20z"/>
<path d="M3115 161 c-3 -6 0 -8 8 -5 9 3 14 0 14 -8 -1 -7 3 -14 8 -15 6 -2
10 5 10 14 0 20 -30 30 -40 14z"/>
<path d="M3323 158 c-44 -22 -54 -96 -17 -132 19 -20 88 -21 104 -2 10 13 7
13 -20 3 -40 -15 -64 -1 -68 42 l-3 31 50 0 c54 0 63 11 39 43 -17 21 -58 29
-85 15z m55 -10 c23 -23 13 -38 -23 -38 -22 0 -35 5 -35 13 0 16 20 37 35 37
6 0 16 -5 23 -12z"/>
<path d="M3478 159 c-31 -17 -22 -53 20 -80 25 -17 37 -32 36 -47 -1 -25 6
-28 24 -10 22 22 12 46 -30 75 -50 34 -57 50 -26 62 12 6 16 10 8 10 -8 0 -23
-4 -32 -10z"/>
<path d="M1191 134 c-12 -15 -21 -37 -21 -49 0 -12 9 -34 21 -49 24 -30 78
-36 103 -10 22 22 20 31 -2 11 -22 -20 -53 -22 -70 -5 -7 7 -12 33 -12 58 0
25 5 51 12 58 8 8 9 12 1 12 -6 0 -21 -12 -32 -26z"/>
<path d="M1627 153 c-12 -12 -7 -33 7 -33 9 0 14 9 13 20 -1 20 -9 25 -20 13z"/>
<path d="M2898 148 c20 -20 15 -115 -5 -127 -14 -8 -6 -10 32 -10 28 1 42 3
33 6 -14 3 -18 15 -18 55 0 34 6 58 18 72 16 20 16 20 0 7 -12 -9 -18 -10 -18
-2 0 6 -12 11 -27 11 -21 0 -24 -3 -15 -12z"/>
<path d="M3048 148 c20 -20 15 -115 -5 -127 -14 -8 -6 -10 32 -10 28 1 42 3
32 6 -15 4 -18 14 -17 61 2 82 2 82 -27 82 -21 0 -24 -3 -15 -12z"/>
<path d="M3198 94 c3 -48 0 -69 -10 -75 -8 -6 3 -9 32 -9 35 1 41 3 28 11 -14
8 -18 24 -18 74 0 55 -3 65 -17 65 -16 0 -18 -8 -15 -66z"/>
<path d="M3541 143 c7 -10 15 -20 16 -22 2 -2 3 5 3 17 0 14 -6 22 -16 22 -14
0 -15 -3 -3 -17z"/>
<path d="M2289 98 c-8 -28 -5 -39 9 -36 22 4 29 38 8 38 -9 0 -16 -1 -17 -2z"/>
<path d="M1640 77 c-17 -8 -25 -21 -25 -37 0 -20 6 -26 29 -28 16 -2 33 1 38
6 5 5 0 8 -14 8 -29 -1 -36 31 -11 49 23 18 16 19 -17 2z"/>
<path d="M740 56 c0 -8 -9 -21 -20 -29 -19 -13 -19 -14 10 -13 24 1 30 5 30
23 0 12 -4 25 -10 28 -5 3 -10 -1 -10 -9z"/>
<path d="M3461 39 c-1 -16 4 -26 14 -26 9 0 11 4 6 11 -4 6 -11 18 -14 26 -3
9 -6 5 -6 -11z"/>
</g>
</svg>
